<?xml version="1.0" encoding="UTF-8"?>
<svg id="Layer_1" data-name="Layer 1" xmlns="http://www.w3.org/2000/svg" viewBox="0 0 377.14 111.37">
  <defs>
    <style>
      .cls-1 {
        fill: #fff;
      }
    </style>
  </defs>
  <path class="cls-1" d="m190.38,111.37c-2.97-6.84-8.82-11.2-12.49-17.16-2.6-4.21-4.13-8.95-5.01-13.81-.43-2.37-1.53-3.81-3.81-4.67-9.35-3.53-19.1-5.27-28.88-6.99-17.48-3.08-35.18-4.26-52.81-5.94-17.46-1.68-34.97-2.92-52.19-6.47-8.82-1.83-17.68-3.63-26.13-6.99-3.16-1.27-6.11-2.86-9.05-4.58,5.87,1.66,11.81,2.82,17.81,3.7,11.87,1.72,23.83,2.8,35.78,3.7,17.31,1.31,34.66,2.26,51.95,3.98,1.42.15,2.84,0,4.39-.37-2.69-.69-5.35-1.46-8.04-2.06-20.17-4.49-40.32-8.99-59.74-16.28-5.25-1.98-10.34-4.26-14.97-7.44,10.92,2.67,21.68,5.87,32.75,7.68,16.43,2.67,32.84,5.31,49.24,8.02,4.58.75,9.14,1.72,13.72,2.58.95.17,1.89.54,3.16.19-.88-1.48-2.34-1.85-3.66-2.39-11.07-4.58-22.71-7.72-33.7-12.45-10.17-4.39-20.49-8.54-29.72-14.84-.86-.58-1.89-1.01-2.58-2.84,30.26,12.34,61.89,18.49,92.12,29.27-2.13-2.52-5.01-3.87-7.74-5.46-17.55-10.21-35.76-19.33-52.06-31.59-2.49-1.87-4.84-3.94-7.23-5.85.34-.71.69-.54.97-.37,12.84,8.41,27.07,14.13,40.73,20.99,12.88,6.47,25.7,13.05,38.19,20.21,4.95,2.84,9.07,6.88,13.63,10.39-2.92-4.67-6.6-8.73-10.52-12.58-10.95-10.75-23.14-20.06-34.79-29.98-4-3.42-8.21-6.6-11.68-10.73.97-.6,1.55-.02,2.04.37,13.31,10.58,27.35,20.26,39.8,31.91,7.27,6.8,14.15,13.96,19.78,22.24,4.02,5.89,6.62,12.45,9.18,19.03.22.58.22,1.25,1.05,1.81,1.35-2.97,2.9-5.85,3.98-8.88,3.25-9.1,9.38-16.24,15.61-23.27,12.52-14.09,27.61-25.2,42.54-36.51,1.98-1.51,3.85-3.16,6.47-3.87-3.14,2.8-6.24,5.61-9.42,8.37-10.77,9.29-22.08,17.98-32.26,27.98-4.56,4.49-9.23,8.97-12.56,14.77,1.16.04,1.66-.65,2.13-1.18,6.26-7.05,14.6-11.2,22.54-15.81,18.06-10.47,37.35-18.47,55.82-28.15,3.4-1.78,6.69-3.81,10.02-5.72.82-.47,1.57-1.12,3.27-1.25-20.34,17.57-44.56,27.96-66.1,42.6,30.43-10.26,61.97-16.77,91.89-28.66-21.91,14.6-46.88,22.54-71.07,32.17,1.61.49,3.08.24,4.54-.09,15.48-3.35,31.22-5.16,46.84-7.83,11.63-1.98,23.27-3.76,34.75-6.62,5.35-1.33,10.26-3.76,15.74-5.23-.77,1.53-2.13,1.85-3.27,2.41-13.48,6.82-27.7,11.61-42.28,15.27-13.25,3.33-26.49,6.77-39.91,9.35.02.24.04.49.09.73,17.98-1.25,35.93-2.62,53.91-3.7,18.11-1.1,36.17-2.58,53.98-6.64-1.25,1.38-2.58,2.13-4.56,2.84-14.39,5.07-29.2,8.32-44.3,10.34-12.77,1.72-25.61,2.86-38.45,3.87-10.71.84-21.35,2.21-32.04,3.27-11.59,1.16-23.03,3.14-34.39,5.74-4.45,1.03-8.77,2.49-13.12,3.89-2.02.65-2.67,2.24-3.16,4-1.38,5.01-2.62,10.06-5.35,14.56-3.51,5.76-9.05,10.13-11.42,17.01h.02Z"/>
</svg>