<svg id="Upload_Icon" xmlns="http://www.w3.org/2000/svg" width="46" height="50" viewBox="0 0 46 50">
  <g id="Document_Upload_4" data-name="Document Upload 4">
    <path id="Vector" d="M46,27.5c0,9.374,0,14.061-2.44,17.347a12.643,12.643,0,0,1-2.827,2.765C37.374,50,32.583,50,23,50S8.626,50,5.267,47.613A12.643,12.643,0,0,1,2.44,44.847C0,41.562,0,36.874,0,27.5v-5c0-2.1,0-3.96.027-5.625H.207A32.417,32.417,0,0,0,4.854,16.7,14.538,14.538,0,0,0,17.069,4.749,30.366,30.366,0,0,0,17.25.2V.027C18.952,0,20.856,0,23,0c9.583,0,14.374,0,17.733,2.387A12.643,12.643,0,0,1,43.56,5.153C46,8.438,46,13.126,46,22.5ZM28.289,23.294l3.572,3.526a1.947,1.947,0,0,0,2.711.012,1.846,1.846,0,0,0,.012-2.652l-3.65-3.6a45.974,45.974,0,0,0-3.505-3.255,6.614,6.614,0,0,0-5.311-1.642,7.108,7.108,0,0,0-3.545,1.642,45.982,45.982,0,0,0-3.505,3.256l-3.65,3.6a1.846,1.846,0,0,0,.012,2.652,1.947,1.947,0,0,0,2.711-.012l3.572-3.526a44.431,44.431,0,0,1,3.261-3.048l.111-.086V37.5a1.917,1.917,0,0,0,3.833,0V20.159l.111.086a44.425,44.425,0,0,1,3.261,3.048Z" transform="translate(0 0)" fill="#ccc" fill-rule="evenodd"/>
    <path id="Vector-2" data-name="Vector" d="M1.665,5.2a11.516,11.516,0,0,1-1.6.052,5.836,5.836,0,0,1,.89-3.189A5,5,0,0,1,2.061.955,5.836,5.836,0,0,1,5.25.065a11.516,11.516,0,0,1-.052,1.6A4.25,4.25,0,0,1,1.665,5.2Z" transform="translate(0 0)" fill="#ccc"/>
    <path id="Vector-3" data-name="Vector" d="M9.345,6.272l-.095.744" transform="translate(14.466 9.771)" fill="#ccc"/>
  </g>
</svg>
